<svg xmlns="http://www.w3.org/2000/svg" viewBox="0 0 360 360">
  <title>Falconis Solutions emblem</title>
  <g fill="#d9a646">
    <path d="M260.2 53.8c-94.6 28.2-162.1 108-178.4 210.4 40.7-63.6 103-102.5 186.9-115.4-60.2 28.4-104.5 73.4-132.5 134.2 45.9-40 97.5-60.2 154.4-60.2-43.9 16.6-79 42.3-105.2 77.1 55.4-28 113-38.4 172.4-31.4-38.2-26.7-59-72.5-59-137.5 0-32.9-13.9-58.5-39-77.2-0.7-0.6-1.4-1.1-2.2-1.6-0.4-0.3-0.9-0.5-1.4-0.7z"/>
    <path d="M260.2 109.8c-70.1 27.1-122.3 83.8-146.4 166.9 33.6-46.7 78.4-75.7 134.4-86.6-43.6 23.9-74.5 56.8-92.6 99.9 33.6-31.5 71.9-47.2 114.9-47.2-33.6 13-59.9 33-79 59.8 41.8-20.2 83.8-27.9 126-23.1-27.8-20.3-42.4-54.8-42.4-104.7 0-27.1-8-46.9-23.9-60.4-0.4-0.3-0.9-0.7-1.3-1-0.1 0-0.1 0-0.2-0.1-0.5-0.3-1-0.5-1.5-0.7z" opacity=".9"/>
    <path d="M260.2 164.3c-51.3 23.6-88.5 63.2-111.7 118.9 25.5-29 55.5-47.7 90.2-55.9-29.9 17.7-51.3 40.9-64 69.7 23-18.5 48.8-27.8 77.5-27.8-20.9 9.1-37.1 22.5-48.7 40.2 27.2-12.9 54.6-18.4 82.2-16.5-19.3-15.7-29.2-40.8-29.2-75.5 0-18.7-4.6-32.1-13.9-40.2-0.7-0.6-1.5-1.2-2.3-1.7-0.1-0.1-0.3-0.1-0.4-0.2-0.3-0.2-0.5-0.3-0.7-0.4z" opacity=".75"/>
  </g>
</svg>
